<svg width="63" height="63" viewBox="0 0 63 63" fill="none" xmlns="http://www.w3.org/2000/svg">
<title>Apple Logo</title>
<style>
  .background { fill: #000 }
  .logo { fill: #fff }

  @media (prefers-color-scheme: dark) {
    .circle { fill: #000 }
    .logo { fill: #fff }
  }
</style>
<circle class="logo" cx="31.5" cy="31.5" r="30" fill="white"/>
<path class="background" d="M31.5 1.5C14.9315 1.5 1.5 14.9315 1.5 31.5C1.5 48.071 14.9315 61.5 31.5 61.5C48.0685 61.5 61.5 48.071 61.5 31.5C61.5 14.9315 48.0673 1.5 31.5 1.5ZM33.2202 13.6657C34.581 12.0685 36.8823 10.8844 38.7804 10.8076C39.0228 13.02 38.1311 15.2385 36.8153 16.8344C35.4947 18.4291 33.3347 19.6706 31.2137 19.5061C30.9286 17.34 31.9971 15.0789 33.2202 13.6657ZM44.0226 43.8777C42.4474 46.179 40.8149 48.4718 38.2431 48.5181C35.714 48.5656 34.9002 47.0196 32.0117 47.0196C29.1207 47.0196 28.2168 48.473 25.8228 48.5668C23.3412 48.6594 21.4505 46.0852 19.863 43.7912C16.6163 39.1032 14.1396 30.5424 17.4704 24.7629C19.1199 21.8903 22.0754 20.0775 25.2807 20.0275C27.7221 19.9824 30.0235 21.6722 31.5122 21.6722C33.0046 21.6722 35.8017 19.6425 38.7439 19.9422C39.9743 19.9922 43.4293 20.4369 45.649 23.6836C45.4712 23.7956 41.5227 26.0921 41.5703 30.8738C41.6226 36.5863 46.581 38.4831 46.6383 38.5124C46.592 38.6415 45.8427 41.2182 44.0226 43.8777Z" fill="black"/>
</svg>
